<?xml version="1.0" encoding="utf-8"?>
<!-- Generator: Adobe Illustrator 26.5.0, SVG Export Plug-In . SVG Version: 6.00 Build 0)  -->
<svg version="1.1" id="Layer_1" xmlns="http://www.w3.org/2000/svg" xmlns:xlink="http://www.w3.org/1999/xlink" x="0px" y="0px"
	 viewBox="0 0 566.9 289.9" style="enable-background:new 0 0 566.9 289.9;" xml:space="preserve">
<style type="text/css">
	.st0{fill:#452F24;}
	.st1{fill:#F7941D;}
	.st2{fill:#FECF11;}
</style>
<path class="st0" d="M165.1,95c-0.6-0.1-1.2-0.2-1.8-0.2C163.3,94.8,164,94.8,165.1,95z"/>
<g>
	<g>
		<path class="st0" d="M140.5,99.7c1.6-0.8,3.2-1.5,4.8-2.3c2.3-1.1,4.6-2.1,6.9-3.2c1.3-0.7,2.7-1,4.2-0.9
			c4.1,0.1,8.3,0.1,12.4,0.2c0.3,0,0.5,0.2,0.8,0.4c-0.2,0.3-0.3,0.7-0.5,0.8c-0.7,0.4-1.4,0.8-2.3,1.2c0.6,1.5,1.2,3,1.7,4.5
			c0.1,0.3,0.1,1,0,1c-0.6,0.2-1.3,0.3-1.9,0.3c-0.1,0-0.3-0.6-0.4-0.9c-0.1-1.5-0.2-2.9-0.4-4.4c-0.3,0-0.3,0-0.4,0.1
			c-1.4,0.7-1.5,0.7-1.2,2.2c0.2,1,0.2,2.2,0.7,2.8c0.6,0.6,1.8,0.6,2.7,0.8c1.3,0.3,2.5,0.7,3.8,0.9c1.1,0.2,1.6,0.7,1.5,1.8
			c-2.9,1.4-5.9,2.9-8.8,4.3c-2.2,1.1-4.5,2.2-6.7,3.3c-0.6,0.3-0.8,0.6-0.7,1.2c0.1,1.6,0.4,3.1,1.3,4.6c5.3-2.8,10.5-5.6,15.9-8.4
			c0.2,0.5,0.3,0.9,0.5,1.4c-3.4,1.8-6.8,3.6-10.1,5.4c-2,1-4,2.1-6,3.1c-0.2,0.1-0.7,0.2-0.9,0c-3.8-2-7.6-4.2-11.5-6.1
			c-2.2-1.1-2.7-2.9-3-5c-0.2-1.2,0.2-2,1.5-2.5c1-0.3,1.9-0.8,2.8-1.3c0.2-0.1,0.5-0.6,0.4-0.8c-0.1-1-0.4-1.9-0.5-2.9
			c-0.1-0.6-0.4-0.7-0.9-0.7c-1.6-0.1-3.2-0.1-4.9-0.3c-0.4,0-0.7-0.4-1.1-0.5C140.5,99.9,140.5,99.8,140.5,99.7z M162.9,98.1
			c-0.3,0.1-0.5,0.2-0.7,0.3c-1.7,0.9-3.4,1.8-5.1,2.6c-0.4,0.2-1,0.3-1.5,0.3c-2.3-0.1-4.7-0.2-7-0.4c0.3,1.7,0.7,3.4,1,5.1
			c0,0.2,0.4,0.4,0.6,0.4c1.1,0.2,2.3,0.4,3.4,0.6c3.7,0.5,6.9-0.7,9.8-2.9c0.2-0.2,0.5-0.6,0.4-0.8
			C163.6,101.6,163.2,99.9,162.9,98.1z M166.3,95.4c0-0.1,0-0.2-0.1-0.3c-1.5,0-2.9,0-4.4,0c-2.1,0-4.2-0.2-6.2-0.1
			c-0.7,0-1.4,0.3-2.1,0.6c-0.2,0.1-0.4,0.5-0.4,0.7c0.1,0.2,0.4,0.6,0.6,0.6c0.8,0,1.6-0.2,2.3-0.3c0.3-0.1,0.6-0.3,1-0.3
			c2.3-0.1,4.5,0,6.8-0.1C164.7,95.9,165.5,95.6,166.3,95.4z"/>
		<path class="st0" d="M157.9,113.9c4.9-2.5,9.9-4.9,14.8-7.4c0.1,0.1,0.1,0.2,0.2,0.4c-4.9,2.5-9.9,4.9-14.8,7.4
			C158,114.1,157.9,114,157.9,113.9z"/>
		<path class="st0" d="M158.5,116.5c4.9-2.5,9.9-4.9,14.8-7.4c0.1,0.1,0.1,0.2,0.2,0.3c-4.9,2.5-9.9,4.9-14.8,7.4
			C158.6,116.7,158.6,116.6,158.5,116.5z"/>
		<path class="st0" d="M173.2,108c-4.9,2.5-9.9,4.9-14.8,7.4c-0.1-0.1-0.1-0.2-0.2-0.3c4.9-2.5,9.9-4.9,14.8-7.4
			C173.1,107.8,173.1,107.9,173.2,108z"/>
	</g>
	<g>
		<path class="st0" d="M129.8,134.2c-1.5-1.3-2.5-3-3.7-4.5c-0.4-0.5-0.8-0.9-1.3-1.2c-0.4-0.3-0.8-0.4-1.3-0.2
			c-0.1,0.1-0.3,0-0.5,0c-0.9-0.2-1.5,0.3-1.4,1.2c0,0.3,0.1,0.5,0.2,0.8c0.7,1.6,1.4,3.1,2,4.7c0.4,1,1,1.8,1.9,2.5
			c1.9,1.6,3.8,3.1,5.6,4.7c1.5,1.4,3.3,1.9,5.3,1.8c2.1-0.1,4.3-0.3,6.4-0.4c1.8-0.1,3.3,0.3,4.8,1.4c1.3,1,2.6,1.9,3.9,2.9
			c0.4,0.3,0.7,0.3,1.1,0c0.9-0.6,1.6-1.3,2.2-2.1c0.6-0.9,1.2-1.9,1.7-2.9c0.4-0.8,0.3-1.1-0.4-1.6c-0.8-0.6-1.6-1.1-2.3-1.7
			c-0.7-0.6-1.4-1.3-2.1-2.1c-1.1-1.3-2.3-2.4-3.9-3c-1.9-0.8-3.9-0.9-5.9-0.5c-3.3,0.8-6.7,0.8-10,0.7c-0.5,0-1,0-1.5,0.2
			c-0.8,0.3-1,1-0.5,1.7c0.5,0.7,1.2,1.1,2.1,1.2c1.8,0.1,3.5,0.2,5.3,0.2c1.3,0.1,2.5,0.3,3.6,1c0.1,0,0.2,0.1,0.2,0.1
			c0.1,0.2,0.2,0.4,0.2,0.6c-0.1,0.3-0.3,0.2-0.6,0c-0.9-0.6-2-0.9-3.1-1c-1-0.1-2.1-0.1-3.1-0.2c-0.8,0-1.5-0.1-2.3-0.1
			c-0.8,0-1.5-0.3-2.1-0.8C128.7,136.5,128.6,135.4,129.8,134.2z"/>
		<path class="st0" d="M128,131.2c0.8,0.8,1.6,1.6,2.3,2.4c0.1,0.1,0.3,0.2,0.4,0.2c1.3,0,2.6,0.1,3.9,0c1.8-0.1,3.5-0.2,5.3-0.4
			c0.1,0,0.3-0.1,0.4-0.1c-0.4-1-1.5-1.7-2.6-1.6c-0.4,0.1-0.7,0-1.1-0.3c-0.3-0.3-0.7-0.4-1.1-0.7c0.3-1.1,0.3-2.4,1.7-3
			c1.5-0.6,3-1.2,4.6-1c0.1,0,0.1,0,0.2,0c-1.3,0.4-2.6,0.8-4,1.1c0.4,0.9,1.5,1.5,2.5,1.4c0.8-0.1,1.4-0.4,2-0.9
			c0.6-0.6,1.2-1.2,1.8-1.7c-1-0.9-2.1-1.8-3.6-2c-0.5-0.1-1-0.1-1.5,0c-1,0.1-1.6,0.7-1.7,1.7c0,0.4-0.2,0.6-0.6,0.7
			c-0.3,0.1-0.5,0.3-0.8,0.4c0,0-0.1-0.1-0.1-0.1c0.2-1.6,0.4-3.1,0.6-4.7c0.2-1.6,0.8-3.1,2-4.2c0.1-0.1,0.2-0.2,0.4-0.3
			c-0.5,1-1.1,2-1.6,3c1.3,0.4,2.4-0.5,2.7-1.4c0.1-0.4,0.2-0.9,0.2-1.3c0-0.6,0-1.2,0-1.8c-1.4,0.1-2.7,0.4-3.8,1.5
			c-0.6,0.7-0.9,1.4-0.4,2.1c0.4,0.6,0.3,1,0.2,1.6c-0.3,1.2-0.4,2.5-0.6,3.8c0,0.2-0.1,0.5-0.2,0.8c-0.3-0.4-0.6-0.7-0.9-1
			c-0.1-0.1,0-0.2,0-0.3c0.6-1.5-0.4-2.5-1.5-2.9c-1.1-0.4-2.3-0.5-3.5-0.2c-0.4,0.1-0.8,0.2-1.2,0.3c0.4,1,0.8,1.9,1.3,2.8
			c0.8,1.5,2.5,1.9,4,1c-0.9-1.1-2-1.9-3.2-2.7c0,0,0.1-0.1,0.1-0.1c0.6,0.3,1.2,0.6,1.8,0.9c1,0.6,1.7,1.4,2.4,2.3
			c0.3,0.5,0.4,1,0.3,1.5c-0.2,0.7-0.4,1.5-0.6,2.2c-0.1,0.2-0.2,0.3-0.4,0.3c-0.9,0-1.7,0.2-2.4,0.7
			C130.8,130.5,129.3,130.4,128,131.2z"/>
	</g>
	<path class="st0" d="M162.3,126.9c-0.3-0.3-0.6-0.7-1-1c-1.3-1.2-2.8-1.9-4.7-1.6c-2.8,0.5-4.5,3.6-3.4,6.4c0.9,2.3,2.5,4,4.5,5.2
		c1.7,1.1,3.6,1.9,5.4,2.8c0.4,0.2,0.9,0.4,1.3,0.6c0.1,0,0.4,0,0.5-0.1c2.5-2.5,5-5,6.5-8.3c0.6-1.5,0.9-3,0.7-4.6
		c-0.3-2.1-1.7-3.6-3.7-4c-1.8-0.4-3.8,0.4-4.9,2.1C163.1,125.3,162.7,126.1,162.3,126.9z"/>
	<g>
		<path class="st0" d="M166.1,167.3c2.4,1,5.2,3.5,5.1,6.8c0,1.7-0.7,3.1-1.9,4.3c-0.4,0.5-0.9,0.9-1.4,1.2c-0.4,0.3-0.5,0.6-0.4,1
			c0.3,1.2,0.9,2.2,1.7,3c0.1,0.1,0.3,0.3,0.4,0.4c0.1,0.1,0.1,0.3,0.2,0.4c-0.1,0-0.3,0.1-0.4,0.1c-2.2-0.5-4.4-1.2-6.2-2.7
			c-0.2-0.1-0.4-0.2-0.6-0.1c-3.4,0.5-6.5,0-9.5-1.7c-0.9-0.6-1.7-1.2-2.4-2.1c-0.1-0.1-0.1-0.2-0.2-0.2c1-0.1,2.1-0.1,3.1-0.3
			c3.8-0.5,7.1-1.9,9.8-4.7c1.4-1.5,2.3-3.2,2.7-5.2C166,167.5,166,167.4,166.1,167.3z"/>
		<path class="st0" d="M142.3,180.1c-0.2,0-0.4,0-0.5-0.1l-1.1-0.2l0.3-1c0-0.2,0.1-0.5,0.3-0.7c0.9-1,1.4-1.9,1.5-2.9
			c0-0.4,0-0.7,0-1.1c-1.9-1-3.2-2.3-4.2-3.8c-2-3.2-1.5-7,1.2-9.8c1.8-1.9,4.1-3.1,6.9-3.7c4.3-1,8.4-0.4,12,1.5
			c2,1.1,3.5,2.6,4.4,4.5c1.5,3.1,0.8,6.7-1.8,9.2c-2.1,2.1-4.8,3.3-8.1,3.8c-0.6,0.1-1.2,0.1-1.7,0.2l-0.7,0.1l-0.6,0
			c-0.3,0-0.6,0-0.9,0c-1.4,1.9-3.3,2.8-5,3.5c-0.6,0.2-1.2,0.4-1.7,0.6C142.5,180,142.4,180.1,142.3,180.1z M144.1,177.4
			c0,0.1-0.1,0.1-0.1,0.2c0,0,0.1,0,0.1,0L144.1,177.4z M150.9,159.5c-1.3,0-2.6,0.2-4,0.6c-2.2,0.6-3.9,1.6-5.1,3.2
			c-1.3,1.6-1.3,3.6-0.2,5.3c0.6,1,1.6,1.9,2.8,2.5c1.2,0.7,1.9,1.7,1.9,3.1c0,0.2,0,0.3,0,0.5c0.2-0.2,0.4-0.4,0.6-0.7
			c0.6-0.9,1.4-1.3,2.6-1.3l0.8,0c1,0,2,0,2.9-0.1c3-0.4,5.2-1.6,6.7-3.6c1-1.3,1.3-2.7,0.7-4.3c-0.5-1.4-1.5-2.5-3-3.4
			C155.4,160.1,153.2,159.5,150.9,159.5z"/>
	</g>
	<path class="st0" d="M173.8,152c0,0.3,0,0.5,0,0.8c-0.1,0.4-0.3,0.6-0.7,0.6c-0.3,0-0.5,0-0.8,0c-0.4,0-0.6,0.2-0.8,0.5
		c-0.2,0.3-0.1,0.6,0.2,0.9c0.2,0.2,0.4,0.4,0.6,0.6c0.3,0.3,0.3,0.8,0,1.1c-0.3,0.3-0.5,0.6-0.8,0.8c-0.3,0.3-0.8,0.3-1.1,0
		c-0.2-0.2-0.4-0.4-0.6-0.6c-0.3-0.3-0.6-0.3-0.9-0.2c-0.3,0.1-0.5,0.4-0.5,0.8c0,0.3,0,0.6,0,1c0,0.4-0.3,0.6-0.7,0.6
		c-0.4,0-0.8,0-1.3,0c-0.5,0-0.8-0.4-0.8-0.9c0-0.3,0-0.5,0-0.8c0-0.4-0.2-0.6-0.5-0.7c-0.3-0.1-0.6-0.1-0.9,0.2
		c-0.2,0.2-0.3,0.3-0.5,0.5c-0.4,0.4-0.8,0.4-1.2,0c-0.3-0.2-0.5-0.5-0.8-0.8c-0.3-0.3-0.3-0.8,0-1.1c0.2-0.2,0.4-0.4,0.6-0.6
		c0.3-0.3,0.4-0.6,0.2-0.9c-0.2-0.4-0.4-0.5-0.8-0.5c-0.2,0-0.5,0-0.7,0c-0.6,0-0.9-0.4-0.9-0.9c0-0.4,0-0.8,0-1.1
		c0.1-0.4,0.4-0.7,0.8-0.7c0.3,0,0.7,0,1,0c0.3,0,0.6-0.2,0.7-0.6c0.1-0.3,0-0.6-0.2-0.8c-0.2-0.2-0.4-0.4-0.6-0.6
		c-0.4-0.4-0.4-0.8,0-1.2c0.2-0.2,0.5-0.5,0.7-0.7c0.4-0.4,0.8-0.4,1.2,0c0.2,0.2,0.3,0.3,0.5,0.5c0.3,0.3,0.5,0.4,0.9,0.2
		c0.3-0.1,0.5-0.4,0.5-0.8c0-0.2,0-0.4,0-0.6c0-0.6,0.3-1,1-1c0.3,0,0.6,0,1,0c0.6,0,0.9,0.3,0.9,0.9c0,0.2,0,0.5,0,0.7
		c0,0.4,0.2,0.6,0.5,0.8c0.3,0.2,0.7,0.1,0.9-0.1c0.2-0.2,0.4-0.4,0.6-0.6c0.4-0.3,0.8-0.3,1.2,0c0.3,0.3,0.5,0.5,0.8,0.8
		c0.3,0.3,0.3,0.8,0,1.1c-0.2,0.2-0.4,0.4-0.6,0.6c-0.2,0.3-0.3,0.5-0.2,0.9c0.1,0.3,0.4,0.5,0.7,0.5c0.2,0,0.5,0,0.7,0
		c0.5,0,0.8,0.3,0.8,0.8C173.8,151.7,173.8,151.8,173.8,152C173.8,152,173.8,152,173.8,152z M166.9,154.7c1.4,0,2.6-1.2,2.7-2.6
		c0-1.4-1.1-2.7-2.7-2.7c-1.4,0-2.6,1.2-2.6,2.6C164.3,153.5,165.5,154.7,166.9,154.7z"/>
	<path class="st0" d="M138.1,106.5c0,0.2,0,0.3,0,0.5c0,0.2-0.2,0.4-0.4,0.4c-0.2,0-0.3,0-0.5,0c-0.2,0-0.4,0.1-0.5,0.3
		c-0.1,0.2,0,0.4,0.1,0.6c0.1,0.1,0.2,0.2,0.3,0.4c0.2,0.2,0.2,0.5,0,0.7c-0.2,0.2-0.3,0.3-0.5,0.5c-0.2,0.2-0.5,0.2-0.7,0
		c-0.1-0.1-0.3-0.2-0.4-0.4c-0.2-0.2-0.4-0.2-0.6-0.1c-0.2,0.1-0.3,0.3-0.3,0.5c0,0.2,0,0.4,0,0.6c0,0.2-0.2,0.4-0.4,0.4
		c-0.3,0-0.5,0-0.8,0c-0.3,0-0.5-0.2-0.5-0.5c0-0.2,0-0.3,0-0.5c0-0.2-0.1-0.4-0.3-0.5c-0.2-0.1-0.4,0-0.5,0.1
		c-0.1,0.1-0.2,0.2-0.3,0.3c-0.2,0.2-0.5,0.3-0.8,0c-0.2-0.2-0.3-0.3-0.5-0.5c-0.2-0.2-0.2-0.5,0-0.7c0.1-0.1,0.2-0.2,0.3-0.3
		c0.2-0.2,0.2-0.3,0.1-0.6c-0.1-0.2-0.3-0.3-0.5-0.3c-0.1,0-0.3,0-0.4,0c-0.4,0-0.6-0.2-0.6-0.6c0-0.2,0-0.5,0-0.7
		c0-0.2,0.2-0.4,0.5-0.4c0.2,0,0.4,0,0.6,0c0.2,0,0.3-0.1,0.4-0.3c0.1-0.2,0-0.4-0.1-0.5c-0.1-0.1-0.2-0.2-0.3-0.3
		c-0.2-0.2-0.2-0.5,0-0.7c0.1-0.1,0.3-0.3,0.4-0.4c0.2-0.2,0.5-0.2,0.7,0c0.1,0.1,0.2,0.2,0.3,0.3c0.2,0.2,0.3,0.2,0.5,0.1
		c0.2-0.1,0.3-0.2,0.3-0.5c0-0.1,0-0.3,0-0.4c0-0.4,0.2-0.6,0.6-0.6c0.2,0,0.4,0,0.6,0c0.3,0,0.5,0.2,0.5,0.5c0,0.1,0,0.3,0,0.4
		c0,0.2,0.1,0.4,0.3,0.5c0.2,0.1,0.4,0.1,0.6-0.1c0.1-0.1,0.3-0.2,0.4-0.4c0.2-0.2,0.5-0.2,0.7,0c0.2,0.2,0.3,0.3,0.5,0.5
		c0.2,0.2,0.2,0.5,0,0.7c-0.1,0.1-0.2,0.2-0.3,0.3c-0.2,0.2-0.2,0.3-0.1,0.5c0.1,0.2,0.2,0.3,0.4,0.3c0.1,0,0.3,0,0.4,0
		c0.3,0,0.5,0.2,0.5,0.5C138.1,106.2,138.1,106.3,138.1,106.5C138.1,106.5,138.1,106.5,138.1,106.5z M133.9,108.1
		c0.9,0,1.6-0.7,1.6-1.6c0-0.9-0.6-1.7-1.6-1.7c-0.9,0-1.6,0.7-1.6,1.6C132.3,107.3,133,108.1,133.9,108.1z"/>
</g>
<path class="st0" d="M136.8,157.6c0,0.4,0,0.7-0.1,1.1c-0.1,0.5-0.5,0.8-1,0.8c-0.4,0-0.7,0-1.1,0c-0.5,0-0.9,0.2-1.1,0.7
	c-0.2,0.5-0.1,0.9,0.3,1.3c0.3,0.3,0.5,0.5,0.8,0.8c0.5,0.5,0.5,1.1,0,1.6c-0.4,0.4-0.8,0.8-1.2,1.2c-0.5,0.4-1,0.4-1.5,0
	c-0.3-0.3-0.6-0.6-0.9-0.8c-0.4-0.4-0.8-0.5-1.3-0.2c-0.5,0.2-0.7,0.6-0.7,1.1c0,0.4,0,0.9,0,1.3c0,0.5-0.4,0.8-0.9,0.8
	c-0.6,0-1.2,0-1.7,0c-0.7,0-1.2-0.5-1.2-1.2c0-0.3,0-0.7,0-1c0-0.5-0.2-0.8-0.7-1c-0.5-0.2-0.9-0.1-1.2,0.3
	c-0.2,0.2-0.4,0.5-0.7,0.7c-0.5,0.6-1.2,0.6-1.7,0c-0.4-0.3-0.7-0.7-1.1-1.1c-0.5-0.5-0.5-1.1,0-1.6c0.3-0.3,0.5-0.5,0.8-0.8
	c0.4-0.4,0.5-0.8,0.3-1.3c-0.2-0.5-0.6-0.7-1.1-0.7c-0.3,0-0.7,0-1,0c-0.8,0-1.3-0.5-1.3-1.3c0-0.5,0-1.1,0-1.6
	c0.1-0.6,0.5-0.9,1.1-0.9c0.5,0,0.9,0,1.4-0.1c0.5,0,0.8-0.3,0.9-0.8c0.2-0.4,0-0.8-0.3-1.1c-0.3-0.3-0.5-0.5-0.8-0.8
	c-0.5-0.5-0.5-1.2,0-1.7c0.3-0.3,0.7-0.7,1-1c0.5-0.5,1.2-0.5,1.7,0c0.2,0.2,0.5,0.5,0.7,0.7c0.4,0.4,0.8,0.5,1.2,0.3
	c0.5-0.2,0.7-0.6,0.7-1.1c0-0.3,0-0.6,0-0.9c0-0.9,0.5-1.4,1.4-1.4c0.4,0,0.9,0,1.3,0c0.8,0,1.2,0.4,1.2,1.2c0,0.3,0,0.7,0,1
	c0,0.5,0.2,0.9,0.7,1.1c0.5,0.2,0.9,0.1,1.3-0.2c0.3-0.3,0.6-0.6,0.9-0.8c0.5-0.5,1.1-0.4,1.6,0c0.4,0.4,0.7,0.7,1.1,1.1
	c0.5,0.5,0.5,1.1,0,1.6c-0.2,0.3-0.5,0.5-0.8,0.8c-0.3,0.4-0.5,0.8-0.3,1.2c0.2,0.5,0.5,0.7,1,0.7c0.3,0,0.7,0,1,0
	c0.8,0,1.1,0.4,1.2,1.2C136.8,157.1,136.8,157.4,136.8,157.6C136.8,157.6,136.8,157.6,136.8,157.6z M127.2,161.3
	c2,0,3.7-1.6,3.7-3.6c0-2-1.5-3.8-3.7-3.8c-2,0-3.7,1.7-3.7,3.6C123.6,159.6,125.2,161.3,127.2,161.3z"/>
<g>
	<path d="M211.5,120.3v-1.3c3.4-0.3,3.5-0.5,3.5-4.9l0-16.5c-3.4,7.5-8.5,18.7-10.1,22.7h-1.2c-1.6-4.2-6-14.9-9.1-22.3
		c-0.6,13.2-0.7,17.3-0.7,18.2c0,2.2,1.1,2.5,3.9,2.8v1.3h-9.9V119c2.4-0.2,3.4-0.7,3.7-2.9c0.2-1.7,0.4-4.1,1.3-17.7
		c0.2-2.4-0.2-3-3.8-3.3v-1.3h7.4l9,20.5l9.6-20.5h7.4v1.3c-3.6,0.4-4,0.7-3.9,3.8l0.2,15.3c0.2,4.4,0.3,4.6,3.9,4.9v1.3H211.5z"/>
	<path d="M260.5,95.2c-2.6,0.2-3.5,0.7-3.6,2.5c-0.1,1-0.1,2.7-0.1,6.5v4.1c0,4.4-0.5,7.6-2.9,10.1c-2,2-4.7,2.6-7.6,2.6
		c-2.4,0-4.9-0.5-6.7-1.9c-2.5-1.9-3.7-4.7-3.7-9.5V99.2c0-3.6-0.3-3.9-3.7-4.1v-1.3h11v1.3c-3.3,0.2-3.7,0.5-3.7,4.1v10
		c0,6.2,3,9.3,7.7,9.3c5.6,0,7.6-3.4,7.6-10.4v-4c0-3.8-0.1-5.3-0.2-6.5c-0.1-1.8-1.1-2.4-4.2-2.6v-1.3h10.1V95.2z"/>
	<path d="M281.1,93.8c5.7,0,9.3,1.1,11.9,3.5c2,1.9,3.5,4.8,3.5,8.8c0,4.8-2,8.7-5.2,11c-3.1,2.3-6.9,3.2-12,3.2h-9.7v-1.3
		c3.6-0.3,3.7-0.6,3.7-3.9V99.1c0-3.5-0.4-3.7-3.7-4v-1.3H281.1z M276.8,114.7c0,3,1.3,4,4.4,4c7.4,0,11-5.1,11-12
		c0-4.3-1.5-7.7-4.7-9.7c-1.9-1.2-4.2-1.7-6.9-1.7c-2,0-2.9,0.3-3.3,0.6c-0.4,0.3-0.5,0.7-0.5,2.3V114.7z"/>
	<path d="M306.8,120.3v-1.3c3.4-0.3,3.7-0.5,3.7-4v-16c0-3.5-0.3-3.7-3.7-4v-1.3H318v1.3c-3.4,0.3-3.8,0.5-3.8,4v16
		c0,3.5,0.3,3.6,3.8,4v1.3H306.8z"/>
	<path d="M350,100.3c-0.4-1.4-0.9-2.7-1.3-3.5c-0.7-1.1-1.1-1.3-3.5-1.3h-3.9v19.7c0,3.2,0.3,3.6,4.3,3.8v1.3h-12.2v-1.3
		c3.9-0.2,4.2-0.6,4.2-3.8V95.5H334c-2.3,0-3,0.3-3.7,1.4c-0.5,0.8-0.8,1.8-1.4,3.4h-1.4c0.2-2.6,0.5-5.1,0.6-7.5h1
		c0.6,1,1.1,1,2.3,1h16.4c1.2,0,1.5-0.2,2.1-1h1c0,2,0.2,4.9,0.4,7.4L350,100.3z"/>
	<path d="M375,120.3v-1.3c2.7-0.3,3-0.7,2.4-2.2c-0.5-1.6-1.3-3.6-2.1-6h-9c-0.6,1.7-1.2,3.3-1.8,4.9c-0.9,2.6-0.4,2.9,3,3.3v1.3
		h-9.7v-1.3c2.7-0.3,3.3-0.6,4.7-4.3l8.5-21.3l1.5-0.3c2.6,7,5.4,14.6,8,21.6c1.3,3.5,1.7,3.9,4.7,4.2v1.3H375z M370.9,98.6
		c-1.3,3.4-2.7,7.2-3.9,10.4h7.7L370.9,98.6z"/>
</g>
<g>
	<path d="M206.8,143.9c-0.4-1.2-0.7-2.2-1.3-3.1c-0.7-1.3-1.4-1.6-3.7-1.6h-4.4c-1.2,0-1.3,0.1-1.3,1.3v9.3h5.1
		c3.1,0,3.3-0.4,3.9-3.3h1.3v8.6H205c-0.6-2.9-0.8-3.5-3.9-3.5H196v7.1c0,3.5,0.4,3.7,4.2,4v1.3h-11.6v-1.3c3.4-0.2,3.7-0.5,3.7-4
		v-15.9c0-3.5-0.4-3.7-3.7-4v-1.3H202c3.3,0,5,0,5.8-0.1c0,1.4,0.2,4.3,0.4,6.4L206.8,143.9z"/>
	<path d="M232.1,136.9c7.1,0,13.3,5.4,13.3,13.5c0,8.7-6,14.2-13.6,14.2c-7.8,0-13.6-6-13.6-13.7
		C218.1,143.6,223.3,136.9,232.1,136.9z M231.2,138.5c-4.6,0-8.7,3.8-8.7,11.3c0,7.6,4.1,13.1,10,13.1c4.9,0,8.6-3.6,8.6-11.5
		C241.1,143,236.5,138.5,231.2,138.5z"/>
	<path d="M283.8,138.8c-2.6,0.2-3.5,0.7-3.6,2.5c-0.1,1-0.1,2.7-0.1,6.5v4.1c0,4.4-0.5,7.6-2.9,10.1c-2,2-4.7,2.6-7.6,2.6
		c-2.4,0-4.9-0.5-6.7-1.9c-2.5-1.9-3.7-4.7-3.7-9.5v-10.3c0-3.6-0.3-3.9-3.7-4.1v-1.3h11v1.3c-3.3,0.2-3.7,0.5-3.7,4.1v10
		c0,6.2,3,9.3,7.7,9.3c5.6,0,7.6-3.4,7.6-10.4v-4c0-3.8-0.1-5.3-0.2-6.5c-0.1-1.8-1.1-2.4-4.2-2.6v-1.3h10.1V138.8z"/>
	<path d="M321.4,138.7c-2.6,0.3-3.5,0.7-3.7,2.5c-0.1,1.3-0.1,3.1-0.1,6.9v16.2h-1.7l-17.5-21.2v10c0,3.6,0.1,5.5,0.2,6.7
		c0.1,2.1,1.2,2.7,4.1,2.9v1.3h-10.2v-1.3c2.5-0.2,3.5-0.8,3.7-2.7c0.1-1.3,0.2-3.2,0.2-6.9v-10c0-1.5-0.1-2-0.8-2.9
		c-0.8-1-1.7-1.3-3.7-1.5v-1.3h6.3l17.3,20.4v-9.7c0-3.8-0.1-5.6-0.2-6.8c-0.1-1.8-1.1-2.4-4.4-2.6v-1.3h10.4V138.7z"/>
	<path d="M342.6,137.5c5.7,0,9.3,1.1,11.9,3.5c2,1.9,3.5,4.8,3.5,8.8c0,4.8-2,8.7-5.2,11c-3.1,2.3-6.9,3.2-12,3.2H331v-1.3
		c3.6-0.3,3.7-0.6,3.7-3.9v-16.1c0-3.5-0.4-3.7-3.7-4v-1.3H342.6z M338.4,158.4c0,3,1.3,4,4.4,4c7.4,0,11-5.1,11-12
		c0-4.3-1.5-7.7-4.7-9.7c-1.9-1.2-4.2-1.7-6.9-1.7c-2,0-2.9,0.3-3.3,0.6c-0.4,0.3-0.5,0.7-0.5,2.3V158.4z"/>
	<path d="M382.4,164v-1.3c2.7-0.3,3-0.7,2.4-2.2c-0.5-1.6-1.3-3.6-2.1-6h-9c-0.6,1.7-1.2,3.3-1.8,4.9c-0.9,2.6-0.4,2.9,3,3.3v1.3
		h-9.7v-1.3c2.7-0.3,3.3-0.6,4.7-4.3l8.5-21.3l1.5-0.3c2.6,7,5.4,14.6,8,21.6c1.3,3.5,1.7,3.9,4.7,4.2v1.3H382.4z M378.3,142.3
		c-1.3,3.4-2.7,7.2-3.9,10.4h7.7L378.3,142.3z"/>
	<path d="M422,144c-0.4-1.4-0.9-2.7-1.3-3.5c-0.7-1.1-1.1-1.3-3.5-1.3h-3.9v19.7c0,3.2,0.3,3.6,4.3,3.8v1.3h-12.2v-1.3
		c3.9-0.2,4.2-0.6,4.2-3.8v-19.7H406c-2.3,0-3,0.3-3.7,1.4c-0.5,0.8-0.8,1.8-1.4,3.4h-1.4c0.2-2.6,0.5-5.1,0.6-7.5h1
		c0.6,1,1.1,1,2.3,1h16.4c1.2,0,1.5-0.2,2.1-1h1c0,2,0.2,4.9,0.4,7.4L422,144z"/>
	<path d="M433,164v-1.3c3.4-0.3,3.7-0.5,3.7-4v-16c0-3.5-0.3-3.7-3.7-4v-1.3h11.2v1.3c-3.4,0.3-3.8,0.5-3.8,4v16
		c0,3.5,0.3,3.6,3.8,4v1.3H433z"/>
	<path d="M468.4,136.9c7.1,0,13.3,5.4,13.3,13.5c0,8.7-6,14.2-13.6,14.2c-7.8,0-13.6-6-13.6-13.7
		C454.5,143.6,459.7,136.9,468.4,136.9z M467.6,138.5c-4.6,0-8.7,3.8-8.7,11.3c0,7.6,4.1,13.1,10,13.1c4.9,0,8.6-3.6,8.6-11.5
		C477.5,143,472.9,138.5,467.6,138.5z"/>
	<path d="M520.8,138.7c-2.6,0.3-3.5,0.7-3.7,2.5c-0.1,1.3-0.1,3.1-0.1,6.9v16.2h-1.7l-17.5-21.2v10c0,3.6,0.1,5.5,0.2,6.7
		c0.1,2.1,1.2,2.7,4.1,2.9v1.3H492v-1.3c2.5-0.2,3.5-0.8,3.7-2.7c0.1-1.3,0.2-3.2,0.2-6.9v-10c0-1.5-0.1-2-0.8-2.9
		c-0.8-1-1.7-1.3-3.7-1.5v-1.3h6.3l17.3,20.4v-9.7c0-3.8-0.1-5.6-0.2-6.8c-0.1-1.8-1.1-2.4-4.4-2.6v-1.3h10.4V138.7z"/>
</g>
<g>
	<path class="st1" d="M198.6,183.6c-0.1-0.5-0.4-1-0.6-1.3c-0.3-0.3-0.5-0.4-1.1-0.4h-1c-0.5,0-0.5,0-0.5,0.5v3h1.5
		c0.8,0,0.9-0.2,1.1-1.2h0.5v3h-0.5c-0.1-0.9-0.4-1.2-1.1-1.2h-1.5v2.1c0,1.3,0.1,1.3,1.3,1.4v0.5h-4.4v-0.5c1-0.1,1.2-0.2,1.2-1.4
		v-5c0-1.2-0.1-1.3-1.2-1.4v-0.5h4.6c1.2,0,1.8,0,2.1,0c0,0.2,0.1,1.4,0.1,2.2L198.6,183.6z"/>
	<path class="st1" d="M201,190.1v-0.5c1-0.1,1.2-0.2,1.2-1.3v-5.2c0-1.1-0.1-1.3-1.2-1.3v-0.5h4.2v0.5c-1,0.1-1.2,0.2-1.2,1.3v5.2
		c0,1.1,0.1,1.2,1.2,1.3v0.5H201z"/>
	<path class="st1" d="M216.7,181.8c-0.8,0.1-1.1,0.3-1.1,0.9c0,0.5-0.1,1-0.1,2.2v5.4h-0.8l-5.7-6.8v3.1c0,1.2,0,1.7,0.1,2.1
		c0.1,0.6,0.3,0.9,1.3,1v0.5h-3.4v-0.5c0.8-0.1,1.1-0.3,1.2-0.9c0.1-0.5,0.1-1,0.1-2.2v-3.2c0-0.4,0-0.7-0.3-1.1
		c-0.2-0.3-0.6-0.4-1.1-0.4v-0.5h2.7l5.2,6v-2.4c0-1.2,0-1.6-0.1-2.1c0-0.6-0.3-0.9-1.4-0.9v-0.5h3.4V181.8z"/>
	<path class="st1" d="M222.6,181.3c1.7,0,3,0.4,3.9,1.2c0.7,0.6,1.2,1.6,1.2,3c0,1.6-0.7,2.8-1.7,3.5c-1,0.8-2.3,1.1-3.8,1.1h-3.7
		v-0.5c1-0.1,1.2-0.2,1.2-1.3v-5.2c0-1.1-0.1-1.3-1.2-1.3v-0.5H222.6z M221.4,188.2c0,1,0.2,1.3,1.2,1.3c1.8,0,2.9-1.3,2.9-3.8
		c0-1.3-0.4-2.4-1-3c-0.6-0.6-1.3-0.8-2.2-0.8c-0.5,0-0.7,0.1-0.8,0.2c-0.1,0.1-0.2,0.4-0.2,0.7V188.2z"/>
	<path class="st1" d="M229.7,190.1v-0.5c1-0.1,1.2-0.2,1.2-1.3v-5.2c0-1.1-0.1-1.3-1.2-1.3v-0.5h4.2v0.5c-1,0.1-1.2,0.2-1.2,1.3v5.2
		c0,1.1,0.1,1.2,1.2,1.3v0.5H229.7z"/>
	<path class="st1" d="M245.5,181.8c-0.8,0.1-1.1,0.3-1.1,0.9c0,0.5-0.1,1-0.1,2.2v5.4h-0.8l-5.7-6.8v3.1c0,1.2,0,1.7,0.1,2.1
		c0.1,0.6,0.3,0.9,1.3,1v0.5h-3.4v-0.5c0.8-0.1,1.1-0.3,1.2-0.9c0.1-0.5,0.1-1,0.1-2.2v-3.2c0-0.4,0-0.7-0.3-1.1
		c-0.2-0.3-0.6-0.4-1.1-0.4v-0.5h2.7l5.2,6v-2.4c0-1.2,0-1.6-0.1-2.1c0-0.6-0.3-0.9-1.4-0.9v-0.5h3.4V181.8z"/>
	<path class="st1" d="M256.3,186.4c-0.8,0.1-0.9,0.2-0.9,1.1v1c0,0.5,0,1,0.1,1.3c-0.7,0.1-2.2,0.4-3.3,0.4c-3.2,0-5-1.9-5-4.6
		c0-3.1,2.5-4.6,5.4-4.6c1.1,0,2.3,0.3,2.7,0.3c0,0.6,0.1,1.6,0.2,2.4l-0.5,0.1c-0.3-1.2-0.8-1.7-1.7-2c-0.3-0.1-0.8-0.2-1.2-0.2
		c-1.6,0-2.9,1.4-2.9,3.8c0,2.4,0.8,4.3,3.1,4.3c0.3,0,0.6,0,0.9-0.2c0.2-0.1,0.3-0.4,0.3-0.8v-1.2c0-1-0.2-1-1.3-1.2v-0.5h4.1
		V186.4z"/>
	<path class="st1" d="M266.3,181.8c-1,0.1-1.1,0.2-1.1,1.3v4.5c0,1.6-0.1,2.9-1.4,3.9c-0.5,0.4-1.2,0.7-1.7,0.8l-0.2-0.5
		c0.8-0.3,1.2-0.8,1.3-1.7c0.1-0.8,0.1-1.6,0.1-2.6v-4.4c0-1.1-0.1-1.2-1.2-1.3v-0.5h4.1V181.8z"/>
	<path class="st1" d="M272.9,181.1c2.5,0,4.6,1.8,4.6,4.5c0,2.9-2.1,4.7-4.6,4.7c-2.7,0-4.7-2-4.7-4.6
		C268.1,183.4,269.8,181.1,272.9,181.1z M272.7,181.7c-1.4,0-2.4,1.4-2.4,3.8c0,2.3,0.9,4.3,2.7,4.3c1.3,0,2.3-1.3,2.3-3.7
		C275.3,183.3,274.3,181.7,272.7,181.7z"/>
	<path class="st1" d="M287.4,181.8c-0.9,0.1-1.2,0.3-1.7,1.1c-0.5,0.8-0.9,1.6-1.6,3c-0.1,0.2-0.1,0.4-0.1,0.7v1.7
		c0,1.2,0.1,1.2,1.2,1.4v0.5h-4.3v-0.5c1.1-0.1,1.2-0.2,1.2-1.4v-1.6c0-0.3-0.1-0.4-0.1-0.6c-0.4-0.8-0.9-1.7-1.7-3.1
		c-0.5-0.9-0.7-1.1-1.5-1.1v-0.5h4v0.5c-0.9,0.1-0.9,0.3-0.7,0.8c0.4,0.9,1,2,1.6,3c0.4-0.8,1.1-2.1,1.4-2.9
		c0.3-0.5,0.1-0.7-0.8-0.8v-0.5h3.2V181.8z"/>
	<path class="st1" d="M292.2,190.1v-0.5c1-0.1,1.2-0.2,1.2-1.3v-5.2c0-1.1-0.1-1.3-1.2-1.3v-0.5h4.2v0.5c-1,0.1-1.2,0.2-1.2,1.3v5.2
		c0,1.1,0.1,1.2,1.2,1.3v0.5H292.2z"/>
	<path class="st1" d="M307.9,181.8c-0.8,0.1-1.1,0.3-1.1,0.9c0,0.5-0.1,1-0.1,2.2v5.4H306l-5.7-6.8v3.1c0,1.2,0,1.7,0.1,2.1
		c0.1,0.6,0.3,0.9,1.3,1v0.5h-3.4v-0.5c0.8-0.1,1.1-0.3,1.2-0.9c0.1-0.5,0.1-1,0.1-2.2v-3.2c0-0.4,0-0.7-0.3-1.1
		c-0.2-0.3-0.6-0.4-1.1-0.4v-0.5h2.7l5.2,6v-2.4c0-1.2,0-1.6-0.1-2.1c0-0.6-0.3-0.9-1.4-0.9v-0.5h3.4V181.8z"/>
	<path class="st1" d="M321,183.6c-0.1-0.6-0.4-1.1-0.6-1.3c-0.2-0.3-0.4-0.4-1.2-0.4h-0.9v6.4c0,1.1,0.1,1.2,1.3,1.3v0.5h-4.5v-0.5
		c1.2-0.1,1.3-0.2,1.3-1.3v-6.4h-0.8c-0.8,0-1,0.1-1.2,0.4c-0.2,0.3-0.4,0.7-0.6,1.3h-0.5c0.1-1,0.2-2.1,0.2-2.7h0.4
		c0.2,0.3,0.4,0.3,0.8,0.3h5.4c0.4,0,0.6-0.1,0.8-0.3h0.4c0,0.6,0.1,1.8,0.1,2.7L321,183.6z"/>
	<path class="st1" d="M333.2,181.8c-1.1,0.1-1.2,0.2-1.2,1.3v5.2c0,1.1,0.1,1.2,1.2,1.3v0.5H329v-0.5c1.1-0.1,1.2-0.2,1.2-1.3v-2.6
		h-3.7v2.6c0,1.1,0.1,1.2,1.1,1.3v0.5h-4.2v-0.5c1-0.1,1.2-0.2,1.2-1.3v-5.2c0-1.1-0.1-1.2-1.2-1.3v-0.5h4.2v0.5
		c-1,0.1-1.1,0.2-1.1,1.3v1.9h3.7v-1.9c0-1.1-0.1-1.2-1.2-1.3v-0.5h4.2V181.8z"/>
	<path class="st1" d="M342.7,187.8c-0.1,0.4-0.4,1.9-0.6,2.3H335v-0.5c1.2-0.1,1.3-0.2,1.3-1.3v-5.2c0-1.2-0.2-1.2-1.1-1.3v-0.5h4.4
		c1.4,0,1.9,0,2.1,0c0,0.2,0.1,1.4,0.1,2.2l-0.5,0.1c-0.1-0.5-0.4-1-0.6-1.3c-0.2-0.3-0.4-0.4-1.1-0.4h-0.9c-0.5,0-0.6,0-0.6,0.5
		v2.8h1.3c0.8,0,0.9-0.2,1.1-1.2h0.5v3h-0.5c-0.2-1-0.3-1.2-1.1-1.2h-1.3v2.3c0,0.9,0,1.2,0.9,1.2h1c0.8,0,1-0.1,1.3-0.5
		c0.3-0.4,0.6-0.9,0.8-1.4L342.7,187.8z"/>
	<path class="st1" d="M353.5,183.5c-0.3-0.9-0.7-1.9-1.9-1.9c-0.8,0-1.3,0.6-1.3,1.3c0,0.7,0.5,1.2,1.7,1.8c1.5,0.7,2.4,1.4,2.4,2.8
		c0,1.6-1.3,2.8-3.3,2.8c-0.9,0-1.6-0.2-2.3-0.4c-0.1-0.3-0.3-1.7-0.4-2.4l0.5-0.1c0.3,0.9,1,2.3,2.4,2.3c0.8,0,1.3-0.5,1.3-1.4
		c0-0.8-0.5-1.3-1.6-1.9c-1.4-0.8-2.3-1.4-2.3-2.9c0-1.4,1.1-2.6,3.2-2.6c0.9,0,1.6,0.2,1.9,0.2c0.1,0.5,0.1,1.2,0.3,2.1
		L353.5,183.5z"/>
	<path class="st1" d="M365.6,181.8c-0.9,0.1-1.1,0.3-1.2,0.8c0,0.4-0.1,0.9-0.1,1.8v1.8c0,1.2-0.2,2.4-1,3.2
		c-0.6,0.7-1.6,0.9-2.6,0.9c-0.9,0-1.8-0.2-2.4-0.7c-0.8-0.6-1.2-1.4-1.2-3v-3.4c0-1.3-0.1-1.3-1.2-1.4v-0.5h4.2v0.5
		c-1,0.1-1.1,0.2-1.1,1.4v3.6c0,1.5,0.7,2.5,2.2,2.5c1.6,0,2.3-1.2,2.3-3.2v-1.7c0-0.9,0-1.4-0.1-1.8c-0.1-0.6-0.4-0.8-1.4-0.8v-0.5
		h3.4V181.8z"/>
	<path class="st1" d="M375.6,187.8c-0.2,0.7-0.5,1.7-0.8,2.2c-0.4,0.1-1.5,0.4-2.5,0.4c-3.7,0-5.2-2.4-5.2-4.5
		c0-2.8,2.1-4.7,5.4-4.7c1.2,0,2.2,0.3,2.6,0.3c0.1,0.6,0.2,1.6,0.3,2.2l-0.5,0.1c-0.3-1.1-0.7-1.6-1.4-1.8
		c-0.3-0.1-0.8-0.2-1.2-0.2c-2,0-3,1.6-3,3.8c0,2.5,1.3,4.2,3.1,4.2c1.1,0,1.9-0.6,2.6-2.1L375.6,187.8z"/>
	<path class="st1" d="M386.1,187.8c-0.2,0.7-0.5,1.7-0.8,2.2c-0.4,0.1-1.5,0.4-2.5,0.4c-3.7,0-5.2-2.4-5.2-4.5
		c0-2.8,2.1-4.7,5.4-4.7c1.2,0,2.2,0.3,2.6,0.3c0.1,0.6,0.2,1.6,0.3,2.2l-0.5,0.1c-0.3-1.1-0.7-1.6-1.4-1.8
		c-0.3-0.1-0.8-0.2-1.2-0.2c-2,0-3,1.6-3,3.8c0,2.5,1.3,4.2,3.1,4.2c1.1,0,1.9-0.6,2.6-2.1L386.1,187.8z"/>
	<path class="st1" d="M395.5,187.8c-0.1,0.4-0.4,1.9-0.6,2.3h-7.1v-0.5c1.2-0.1,1.3-0.2,1.3-1.3v-5.2c0-1.2-0.2-1.2-1.1-1.3v-0.5
		h4.4c1.4,0,1.9,0,2.1,0c0,0.2,0.1,1.4,0.1,2.2l-0.5,0.1c-0.1-0.5-0.4-1-0.6-1.3c-0.2-0.3-0.4-0.4-1.1-0.4h-0.9
		c-0.5,0-0.6,0-0.6,0.5v2.8h1.3c0.8,0,0.9-0.2,1.1-1.2h0.5v3h-0.5c-0.2-1-0.3-1.2-1.1-1.2h-1.3v2.3c0,0.9,0,1.2,0.9,1.2h1
		c0.8,0,1-0.1,1.3-0.5c0.3-0.4,0.6-0.9,0.8-1.4L395.5,187.8z"/>
	<path class="st1" d="M402.4,183.5c-0.3-0.9-0.7-1.9-1.9-1.9c-0.8,0-1.3,0.6-1.3,1.3c0,0.7,0.5,1.2,1.7,1.8c1.5,0.7,2.4,1.4,2.4,2.8
		c0,1.6-1.3,2.8-3.3,2.8c-0.9,0-1.6-0.2-2.3-0.4c-0.1-0.3-0.3-1.7-0.4-2.4l0.5-0.1c0.3,0.9,1,2.3,2.4,2.3c0.8,0,1.3-0.5,1.3-1.4
		c0-0.8-0.5-1.3-1.6-1.9c-1.4-0.8-2.3-1.4-2.3-2.9c0-1.4,1.1-2.6,3.2-2.6c0.9,0,1.6,0.2,1.9,0.2c0.1,0.5,0.1,1.2,0.3,2.1
		L402.4,183.5z"/>
	<path class="st1" d="M410.4,183.5c-0.3-0.9-0.7-1.9-1.9-1.9c-0.8,0-1.3,0.6-1.3,1.3c0,0.7,0.5,1.2,1.7,1.8c1.5,0.7,2.4,1.4,2.4,2.8
		c0,1.6-1.3,2.8-3.3,2.8c-0.9,0-1.6-0.2-2.3-0.4c-0.1-0.3-0.3-1.7-0.4-2.4l0.5-0.1c0.3,0.9,1,2.3,2.4,2.3c0.8,0,1.3-0.5,1.3-1.4
		c0-0.8-0.5-1.3-1.6-1.9c-1.4-0.8-2.3-1.4-2.3-2.9c0-1.4,1.1-2.6,3.2-2.6c0.9,0,1.6,0.2,1.9,0.2c0.1,0.5,0.1,1.2,0.3,2.1
		L410.4,183.5z"/>
	<path class="st1" d="M422,181.1c2.5,0,4.6,1.8,4.6,4.5c0,2.9-2.1,4.7-4.6,4.7c-2.7,0-4.7-2-4.7-4.6
		C417.3,183.4,418.9,181.1,422,181.1z M421.8,181.7c-1.4,0-2.4,1.4-2.4,3.8c0,2.3,0.9,4.3,2.7,4.3c1.3,0,2.3-1.3,2.3-3.7
		C424.5,183.3,423.4,181.7,421.8,181.7z"/>
	<path class="st1" d="M435,183.6c-0.1-0.5-0.4-1-0.6-1.3c-0.3-0.3-0.5-0.4-1.1-0.4h-1c-0.5,0-0.5,0-0.5,0.5v3h1.5
		c0.8,0,0.9-0.2,1.1-1.2h0.5v3h-0.5c-0.1-0.9-0.4-1.2-1.1-1.2h-1.5v2.1c0,1.3,0.1,1.3,1.3,1.4v0.5h-4.4v-0.5c1-0.1,1.2-0.2,1.2-1.4
		v-5c0-1.2-0.1-1.3-1.2-1.4v-0.5h4.6c1.2,0,1.8,0,2.1,0c0,0.2,0.1,1.4,0.1,2.2L435,183.6z"/>
	<path class="st1" d="M446.1,181.1c2.5,0,4.6,1.8,4.6,4.5c0,2.9-2.1,4.7-4.6,4.7c-2.7,0-4.7-2-4.7-4.6
		C441.4,183.4,443,181.1,446.1,181.1z M445.9,181.7c-1.4,0-2.4,1.4-2.4,3.8c0,2.3,0.9,4.3,2.7,4.3c1.3,0,2.3-1.3,2.3-3.7
		C448.5,183.3,447.5,181.7,445.9,181.7z"/>
	<path class="st1" d="M460.2,183.6c-0.1-0.6-0.4-1.1-0.6-1.3c-0.2-0.3-0.4-0.4-1.2-0.4h-0.9v6.4c0,1.1,0.1,1.2,1.3,1.3v0.5h-4.5
		v-0.5c1.2-0.1,1.3-0.2,1.3-1.3v-6.4h-0.8c-0.8,0-1,0.1-1.2,0.4c-0.2,0.3-0.4,0.7-0.6,1.3h-0.5c0.1-1,0.2-2.1,0.2-2.7h0.4
		c0.2,0.3,0.4,0.3,0.8,0.3h5.4c0.4,0,0.6-0.1,0.8-0.3h0.4c0,0.6,0.1,1.8,0.1,2.7L460.2,183.6z"/>
	<path class="st1" d="M472.3,181.8c-1.1,0.1-1.2,0.2-1.2,1.3v5.2c0,1.1,0.1,1.2,1.2,1.3v0.5h-4.2v-0.5c1.1-0.1,1.2-0.2,1.2-1.3v-2.6
		h-3.7v2.6c0,1.1,0.1,1.2,1.1,1.3v0.5h-4.2v-0.5c1-0.1,1.2-0.2,1.2-1.3v-5.2c0-1.1-0.1-1.2-1.2-1.3v-0.5h4.2v0.5
		c-1,0.1-1.1,0.2-1.1,1.3v1.9h3.7v-1.9c0-1.1-0.1-1.2-1.2-1.3v-0.5h4.2V181.8z"/>
	<path class="st1" d="M481.8,187.8c-0.1,0.4-0.4,1.9-0.6,2.3h-7.1v-0.5c1.2-0.1,1.3-0.2,1.3-1.3v-5.2c0-1.2-0.2-1.2-1.1-1.3v-0.5
		h4.4c1.4,0,1.9,0,2.1,0c0,0.2,0.1,1.4,0.1,2.2l-0.5,0.1c-0.1-0.5-0.4-1-0.6-1.3c-0.2-0.3-0.4-0.4-1.1-0.4H478c-0.5,0-0.6,0-0.6,0.5
		v2.8h1.3c0.8,0,0.9-0.2,1.1-1.2h0.5v3h-0.5c-0.2-1-0.3-1.2-1.1-1.2h-1.3v2.3c0,0.9,0,1.2,0.9,1.2h1c0.8,0,1-0.1,1.3-0.5
		c0.3-0.4,0.6-0.9,0.8-1.4L481.8,187.8z"/>
	<path class="st1" d="M492.1,190.2c-0.1,0-0.2,0-0.4,0c-1.7-0.1-2.2-0.4-2.6-1c-0.5-0.7-0.9-1.6-1.4-2.4c-0.2-0.4-0.4-0.4-0.8-0.4
		l-0.3,0v2c0,1.1,0.1,1.2,1.2,1.3v0.5h-4.2v-0.5c1-0.1,1.2-0.2,1.2-1.3v-5.2c0-1.1-0.1-1.2-1.2-1.3v-0.5h3.9c1.2,0,1.9,0.1,2.5,0.5
		c0.5,0.4,0.9,1,0.9,1.8c0,1.2-0.8,1.8-1.7,2.2c0.2,0.4,0.7,1.3,1.1,1.9c0.5,0.7,0.8,1.1,1,1.4c0.3,0.4,0.5,0.5,0.9,0.6L492.1,190.2
		z M487,185.8c0.6,0,1-0.1,1.3-0.4c0.4-0.4,0.6-0.9,0.6-1.6c0-1.4-0.8-2-1.6-2c-0.4,0-0.5,0.1-0.6,0.1c-0.1,0.1-0.1,0.2-0.1,0.5v3.2
		H487z"/>
	<path class="st1" d="M498.5,183.5c-0.3-0.9-0.7-1.9-1.9-1.9c-0.8,0-1.3,0.6-1.3,1.3c0,0.7,0.5,1.2,1.7,1.8c1.5,0.7,2.4,1.4,2.4,2.8
		c0,1.6-1.3,2.8-3.3,2.8c-0.9,0-1.6-0.2-2.3-0.4c-0.1-0.3-0.3-1.7-0.4-2.4l0.5-0.1c0.3,0.9,1,2.3,2.4,2.3c0.8,0,1.3-0.5,1.3-1.4
		c0-0.8-0.5-1.3-1.6-1.9c-1.4-0.8-2.3-1.4-2.3-2.9c0-1.4,1.1-2.6,3.2-2.6c0.9,0,1.6,0.2,1.9,0.2c0.1,0.5,0.1,1.2,0.3,2.1
		L498.5,183.5z"/>
</g>
<path class="st2" d="M109.8,178.2c3.5-1.4,6.9-2.9,10.4-4.2c2.1-0.8,3.5-0.7,2.5,2.6c-2.3,7.5-4.9,14.8-9,21.7
	c2.3,0.2,2.6-1.5,3.4-2.6c3.2-4.7,6-9.7,8.2-15.1c0.4-0.9,0.6-2.2,1.8-2c1.2,0.3,1.5,1.5,1.5,2.8c-0.2,3.9-0.9,7.7-2.4,11.4
	c-7.1,17.3-20.9,26-37.2,31.4c-6.3,2.1-12.7,2.8-19.2,1.6c-5.2-0.9-6.2-2.9-3.5-7.6c8.2-14.3,18.7-26.6,30.7-37.5
	c1.1-1,2.6-1.6,3-3.5c-0.5,0-0.9-0.2-1.2,0c-15.9,9.5-33,9.6-50.4,7.3c-1.4-0.2-2.7-0.8-4-1.1c-3.1-0.8-7-1.2-7.8-4.7
	c-0.7-3.2,2.5-5.6,4.8-7.6C54.4,159,69,150.3,86.7,148.4c4.9-0.5,9.7,0,15.5,2.4c-6.5,1.3-12,1-17.8,2.7c4,1.1,7.5,0.1,11,0.1
	c3.9,0,7.7,0.3,11.6,0.5c2.4,0.2,4.3,0.9,4.9,3.7c0.6,2.9-0.4,5.2-2.8,6.6c-3.3,2.1-6.8,3.8-10.9,5c2.3,1.3,4.1,0,5.9-0.4
	c0.8-0.2,1.8-0.6,2.2,0.3c0.4,0.8-0.4,1.6-0.9,2.2c-1.2,1.4-3,2.1-3.9,4.2c1.9,0.4,2.8-1.1,4.1-1.7c1.6-0.8,3.2-1.7,4.9-2.4
	c2.2-1,5.5-2.5,6.4-0.4c1,2.3-2.9,2-4.3,3.5c-1,1-2.3,1.7-3.4,2.5c-0.7,0.7-1.5,1.3-2.2,2c-0.4,0.1-0.8,0.2-0.5,0.7
	c0,0,0.6-0.2,0.9-0.3C108.4,179.7,109.1,179,109.8,178.2z"/>
<path class="st2" d="M143.3,79.9c0.7,4.3,1.3,7.4,1.8,10.6c0.3,1.7-0.4,2.8-1.6,3.7c-1.2,0.8-2.3,0.5-3.5-0.2
	c-3.3-2.1-6.2-4.8-9-7.5c-0.8-0.7-1.2-1.9-3.1-1.7c1.5,3.5,4.5,5.4,6.6,8c0.7,0.9,2.6,1.3,1.6,3c-0.9,1.5-2.5,0.9-3.8,0.4
	c-5.8-2.4-10.5-6.3-14.4-11.2c-12.5-16-19.5-34.5-21.2-55.1c-0.5-5.7,1.2-6.9,6.3-4.8c8.3,3.5,15.3,9,21.8,15.3
	c11,10.8,20,23,23.8,38.7c0.7,2.8,1.1,5.7,0.5,8.6c-0.2,0.9,0,2.3-1.3,2.4c-1.3,0.1-1.1-1.2-1.4-2.2
	C145.6,85.3,145.5,82.7,143.3,79.9z M125.8,82.1c0.2,0.3,0.4,0.7,0.6,1c0.4,0.5,0.6,1.8,1.6,0.9c0.4-0.4-0.3-1.1-0.8-1.5
	c-0.3-0.3-0.5-0.6-0.8-0.9c-0.1-0.4-0.2-0.8-0.7-0.6C125.5,81.1,125.7,81.7,125.8,82.1z"/>
<path class="st2" d="M180.1,206.1c-0.8-5.6-3.5-10.6-5.7-17c4.5,2.7,6.9,5.9,9,9.4c6.9,11.3,8.8,24,8.5,37.2
	c-0.2,10.3-2.3,20.4-6.4,29.8c-0.6,1.3-1.3,2.6-2,3.8c-2.3,3.5-3.8,3.6-6.4,0.2c-6.7-8.8-10.7-19.1-14.2-29.5
	c-4.5-13.3-7.9-26.9-5.8-41.4c0.4-2.7,1.3-5,3.2-6.8c0.5-0.5,1-1.1,1.8-0.7c0.8,0.4,0.6,1.2,0.6,1.9c-0.4,4.5,0.8,8.8,1.9,13.2
	c0.6-4.1-0.2-8.2,0.5-12.3c0.3-1.8,0.2-3.7,1.4-5.3c0,0-0.1,0.1-0.1,0.1c2.6-0.1,4.2,0.9,5.7,3.3c3,4.7,5.1,9.7,7.6,14.7
	c0.1,0.7-0.3,1.6,0.5,2.2C180.7,207.9,180.5,207,180.1,206.1z"/>
<path class="st2" d="M133.4,204.9c1.3-4.9,3-9.8,5-14.5c1.1-2.4,2.3-3.5,5-3.3c3,0.3,3.7,2.3,3.9,4.6c0.5,4.7,0.7,9.3,1.2,14.9
	c2.4-5.4,1.1-10.4,2.1-15.2c2.7,4,3.3,8.8,3.1,13.3c-0.8,24.5-11.9,43.8-29.4,59.4c-4.1,3.6-6.2,2.8-7.4-2.8
	c-2.5-12-1.8-24.1,0.2-36.2c1.8-10.1,4.5-20,9.9-28.8c1.6-2.7,3.3-5.4,5.8-7.3c0.7-0.6,1.5-1.6,2.5-0.8c0.9,0.7,0.1,1.6-0.1,2.3
	C134,195.3,133.2,200,133.4,204.9z"/>
<path class="st2" d="M169.2,81c-1.5,2.2-3,4.5-4.6,6.7c-0.8,1-1.8,2-3.2,1.6c-1.5-0.4-1.5-1.9-1.7-3.1c-1.2-7.1-1.6-14.3-1-21.5
	c0.1-1.5,0.7-3.1-0.2-5.5c-1.2,9.7-2.4,18.6-0.9,28c-3.3-1.1-4-3.6-4.6-6.1c-2.5-9.9-1.4-19.7,1.9-29.3
	c4.9-14.4,12.4-27.1,23.4-37.3c4.7-4.3,6.5-3.7,8.2,2.6c2.9,10.3,2.8,20.8,1.7,31.3c-1.3,12.3-4.3,24.1-11.4,34.4
	c-3.3,4.8-6,6.4-10.3,6c0.4-2.8,2.9-4.5,3.2-7.3c0.9-0.5,1.2-1.8,0.7-2C169.5,79.1,169.8,80.6,169.2,81z"/>
<path class="st2" d="M102.7,125.3c2.8,1.2,5.6,2.4,8.1,4c1.3,0.9,2.5,1.9,2.2,3.8c-0.4,2-1.8,2.7-3.6,3c-4.8,0.8-9.5,1.6-14.4,1.2
	c-1.4-0.1-2.7-0.1-3.8,1.4c4.4,0.4,8.7,0.8,13,1.2c0.7,0.1,1.9-0.3,2.1,0.8c0.3,1.3-0.9,1.6-1.8,1.9c-4.6,1.9-9.4,2.8-14.2,2.8
	c-19.4-0.2-35.8-7.4-48.2-23.3c-4.3-5.6-3.9-7.5,2.5-9.7c11.6-4.1,23.4-3.8,35.3-2.3c9.3,1.2,18.5,3.1,26.8,8.1
	c2.2,1.4,4.1,2.9,5.1,5.4c0.4,0.8,0.6,1.8,0,2.5c-0.6,0.7-1.6,0.5-2.3,0.2C107.4,125.3,105.1,125,102.7,125.3z"/>
<path class="st2" d="M96.3,102.2c4.4,4.2,9.3,7.5,14.9,9.7c1.1,0.4,2.8,0.7,2.3,2.4c-0.4,1.4-2.1,1.2-3.3,1.1
	c-9.7-0.6-17.1-5.7-23.7-12.6c-6.6-6.9-11.6-14.9-16-23.4c-1.7-3.3-3.5-6.5-5.3-9.7c-2.2-4-1.7-5.3,2.8-6.6
	c4.7-1.3,9.4-0.5,13.9,0.7c14,3.9,26.3,10.8,35.1,23.3c2.3,3.3,4,6.8,5.2,10.7c0.5,1.7,1.3,3.9-0.1,4.9c-1.8,1.4-2.6-1.3-3.9-2.2
	c-0.6-0.7-0.9-1.8-2.2-2c0.2,1.4,0.7,2.1,1.5,2.7c0.1,0.4,0.2,0.8,0.3,1.2c0.7,2.2,3.3,4.3,1.4,6.6c-1.9,2.2-4.7,0.6-6.9,0.1
	c-5.6-1.3-10.5-4.5-15.5-7.4c-0.4-0.4-0.8-0.8-1.3-1.2c-0.3-0.1-0.8-0.4-0.9-0.3c-0.3,0.4,0.1,0.6,0.4,0.7
	C95.6,101.2,95.9,101.7,96.3,102.2z"/>
<path class="st2" d="M143.5,50.8c-0.5,3.1-1.3,2.8-2.8,1.2c-7.4-7.7-7.1-16.6-4-26c0.3-0.8,0.6-1.6,0.7-2.5c0.4-2.2,0.2-5.1,2.8-5.8
	c2.2-0.6,3.6,1.8,4.9,3.3c2.3,2.8,4.7,5.6,6.6,8.8c4.3,7,3.6,13.4-1.5,20.3c-0.6,0.8-0.5,2.2-0.9,3.2c-0.5,1.1-0.3,2.8-1.9,3.1
	c-1.8,0.3-2.2-1.4-2.9-2.5C144.2,53.3,144.1,52.4,143.5,50.8z"/>
<path class="st2" d="M76.4,101.1c2.8,1.9,6.3,2.7,8.1,6.3c-10.8,1.7-19.2-2.9-26.9-9.4c-2.5-2.1-1.2-3.9,1.2-5.3
	c9-5.3,18.1-1.8,22,8.8c-1.4-0.4-2.5-0.8-3.6-1.1c-0.8-0.6-1.6-0.9-2.9-0.4C75.2,100.4,75.8,100.8,76.4,101.1z"/>
<path class="st2" d="M72.6,192.2c3.1-0.6,4.8-4.3,8.7-4.7c-3.5,5.2-6.6,10.1-9.9,14.7c-1.9,2.7-13.8,4.5-16.5,2.7
	c-1.1-0.7-1.6-1.6-1.2-3.2c2-7.6,10.2-13.8,17.4-13.3c3.6,0.3,2.2,1.5,0.9,3.1c-0.4,0.4-0.8,0.8-1.3,1.2c-0.5,0.2-0.9,0.3-1.4,0.5
	c0.6,0.6,1.2,0.5,1.8,0.1C71.6,192.8,72.1,192.5,72.6,192.2z"/>
<path class="st2" d="M112,224.6c1.8-0.7,2.4-2.4,3.9-2.5c0.5,9.3-6.4,17.3-15.2,17.7c-2.8,0.1-3.3-1.6-3-3.9
	c1.2-9.4,6.2-15.8,14.6-19.3c0.7-0.3,1.3-0.8,1.9-0.3c0.6,0.5,0.3,1.3,0.1,2C113.6,220.3,112.8,222.3,112,224.6z M111.5,226
	c0.1-0.1,0.2-0.1,0.3-0.2c0-0.1-0.1-0.2-0.2-0.3c-0.1,0.1-0.2,0.2-0.3,0.4C111.4,225.9,111.4,225.9,111.5,226z"/>
<path class="st2" d="M85,47.1c5.2,1.2,9.2,2.7,12.7,5.2c2.2,1.6,3.9,3.8,2.1,6.9c-0.8,1.3,0.6,1.9,0.9,2.8c0.7,1.8,0.2,2.7-1,4.1
	c-1.4,1.6-1.9,0.1-2.7-0.2c-2.4-1-4.7-2.2-7.1-3.2c-5.3-2.3-6.6-7.3-7.4-12.5C82.1,47.4,83.4,46.4,85,47.1z"/>
<path class="st2" d="M65.6,142.7c-1.3,1.4-3.1,1.2-5.3,1.3c0.8,0.5,1,0.6,1.2,0.7c2.5,0.7,6.6-0.7,7.2,2.3c0.4,1.8-4,2.7-6.1,4.2
	c-5.7,3.7-10.9,1.1-16.1-1c-2.2-0.9-1.6-2.5-0.4-4.1C50.7,139.3,58.3,138,65.6,142.7z"/>
<path class="st2" d="M150.7,236c1.3,1.3,0.3,2.8,1.2,4.2c1.1-2.3,1.4-4.9,3.2-6.7c4.9,6,3.4,19.4-2.5,23.7c-1.9,1.4-2.8,0-3.7-1.3
	C144.1,249.7,144.7,243.2,150.7,236z"/>
<ellipse transform="matrix(0.5 -0.866 0.866 0.5 -37.9548 164.6526)" class="st0" cx="123.6" cy="115.2" rx="5.2" ry="3.9"/>
<ellipse transform="matrix(0.2247 -0.9744 0.9744 0.2247 -26.1265 295.1931)" class="st0" cx="172.4" cy="164" rx="4.2" ry="3.1"/>
<ellipse transform="matrix(0.9469 -0.3216 0.3216 0.9469 -39.5927 45.2059)" class="st0" cx="117" cy="142.4" rx="3.9" ry="5.2"/>
<ellipse transform="matrix(0.9994 -3.508585e-02 3.508585e-02 0.9994 -4.7986 6.1801)" class="st0" cx="173.7" cy="139.8" rx="3.9" ry="5.2"/>
<ellipse transform="matrix(0.9469 -0.3216 0.3216 0.9469 -33.35 44.5997)" class="st0" cx="118.3" cy="123.2" rx="2.7" ry="2.8"/>
<ellipse transform="matrix(0.9469 -0.3216 0.3216 0.9469 -36.2237 44.7213)" class="st0" cx="117.3" cy="132" rx="1.9" ry="2"/>
<ellipse transform="matrix(0.9008 -0.4342 0.4342 0.9008 -50.7806 75.091)" class="st0" cx="139" cy="148.7" rx="1.9" ry="2"/>
<ellipse transform="matrix(0.9008 -0.4342 0.4342 0.9008 -33.8447 87.6062)" class="st0" cx="174.9" cy="117.9" rx="3" ry="3.1"/>
<ellipse transform="matrix(0.9008 -0.4342 0.4342 0.9008 -37.0575 88.8805)" class="st0" cx="176" cy="125.6" rx="1.7" ry="1.8"/>
<ellipse transform="matrix(0.9008 -0.4342 0.4342 0.9008 -35.0921 84.5293)" class="st0" cx="167.5" cy="119.1" rx="1.4" ry="1.4"/>
<ellipse transform="matrix(0.9008 -0.4342 0.4342 0.9008 -38.3711 76.2682)" class="st0" cx="147.8" cy="122.1" rx="2.6" ry="2.7"/>
<ellipse transform="matrix(0.9008 -0.4342 0.4342 0.9008 -51.1028 78.4844)" class="st0" cx="146.3" cy="151.1" rx="3.9" ry="4.1"/>
<ellipse transform="matrix(0.9469 -0.3216 0.3216 0.9469 -48.6187 51.9704)" class="st0" cx="133" cy="173.2" rx="3.9" ry="4.1"/>
</svg>
